<mxfile host="app.diagrams.net" modified="2021-04-24T18:21:11.494Z" agent="5.0 (Macintosh)" etag="g2VBtlSf3FSDFr6xwLKe" version="14.6.6" type="github">
  <diagram id="FejD5j5bTg7KnsNFmG-m" name="Page-1">
    <mxGraphModel dx="1554" dy="794" grid="1" gridSize="10" guides="1" tooltips="1" connect="1" arrows="1" fold="1" page="1" pageScale="1" pageWidth="1100" pageHeight="850" math="0" shadow="0">
      <root>
        <mxCell id="0" />
        <mxCell id="1" parent="0" />
        <mxCell id="FBXP_28kxmkB9ySifm7v-15" style="edgeStyle=orthogonalEdgeStyle;rounded=0;orthogonalLoop=1;jettySize=auto;html=1;exitX=1;exitY=0.5;exitDx=0;exitDy=0;entryX=0;entryY=0.5;entryDx=0;entryDy=0;" edge="1" parent="1" source="FBXP_28kxmkB9ySifm7v-9" target="FBXP_28kxmkB9ySifm7v-11">
          <mxGeometry relative="1" as="geometry" />
        </mxCell>
        <mxCell id="FBXP_28kxmkB9ySifm7v-19" style="edgeStyle=orthogonalEdgeStyle;rounded=0;orthogonalLoop=1;jettySize=auto;html=1;exitX=0;exitY=0.25;exitDx=0;exitDy=0;" edge="1" parent="1" source="FBXP_28kxmkB9ySifm7v-9">
          <mxGeometry relative="1" as="geometry">
            <mxPoint x="128" y="183" as="targetPoint" />
          </mxGeometry>
        </mxCell>
        <mxCell id="FBXP_28kxmkB9ySifm7v-9" value="" style="rounded=0;whiteSpace=wrap;html=1;" vertex="1" parent="1">
          <mxGeometry x="268" y="155" width="250" height="110" as="geometry" />
        </mxCell>
        <mxCell id="FBXP_28kxmkB9ySifm7v-14" style="edgeStyle=orthogonalEdgeStyle;rounded=0;orthogonalLoop=1;jettySize=auto;html=1;exitX=0.5;exitY=0.5;exitDx=0;exitDy=0;exitPerimeter=0;" edge="1" parent="1" source="FBXP_28kxmkB9ySifm7v-2">
          <mxGeometry relative="1" as="geometry">
            <mxPoint x="268" y="215" as="targetPoint" />
          </mxGeometry>
        </mxCell>
        <mxCell id="FBXP_28kxmkB9ySifm7v-2" value="&lt;font style=&quot;font-size: 14px&quot;&gt;anonymous visitors&lt;/font&gt;" style="shape=umlActor;verticalLabelPosition=bottom;verticalAlign=top;html=1;outlineConnect=0;" vertex="1" parent="1">
          <mxGeometry x="98" y="185" width="30" height="60" as="geometry" />
        </mxCell>
        <mxCell id="FBXP_28kxmkB9ySifm7v-6" value="&lt;h2 id=&quot;front-end&quot; style=&quot;font-size: 19px&quot;&gt;Front-end&lt;/h2&gt;" style="text;html=1;strokeColor=#6c8ebf;fillColor=#dae8fc;align=center;verticalAlign=middle;whiteSpace=wrap;rounded=0;fontSize=15;textDirection=ltr;fontStyle=1" vertex="1" parent="1">
          <mxGeometry x="318" y="165" width="150" height="20" as="geometry" />
        </mxCell>
        <mxCell id="FBXP_28kxmkB9ySifm7v-17" style="edgeStyle=orthogonalEdgeStyle;rounded=0;orthogonalLoop=1;jettySize=auto;html=1;exitX=0.75;exitY=0;exitDx=0;exitDy=0;entryX=0.75;entryY=1;entryDx=0;entryDy=0;" edge="1" parent="1" source="FBXP_28kxmkB9ySifm7v-10" target="FBXP_28kxmkB9ySifm7v-11">
          <mxGeometry relative="1" as="geometry" />
        </mxCell>
        <mxCell id="FBXP_28kxmkB9ySifm7v-10" value="" style="rounded=0;whiteSpace=wrap;html=1;" vertex="1" parent="1">
          <mxGeometry x="748" y="385" width="250" height="110" as="geometry" />
        </mxCell>
        <mxCell id="FBXP_28kxmkB9ySifm7v-16" style="edgeStyle=orthogonalEdgeStyle;rounded=0;orthogonalLoop=1;jettySize=auto;html=1;exitX=0.5;exitY=1;exitDx=0;exitDy=0;entryX=0.5;entryY=0;entryDx=0;entryDy=0;" edge="1" parent="1" source="FBXP_28kxmkB9ySifm7v-11" target="FBXP_28kxmkB9ySifm7v-10">
          <mxGeometry relative="1" as="geometry" />
        </mxCell>
        <mxCell id="FBXP_28kxmkB9ySifm7v-18" style="edgeStyle=orthogonalEdgeStyle;rounded=0;orthogonalLoop=1;jettySize=auto;html=1;exitX=0;exitY=0.25;exitDx=0;exitDy=0;entryX=1;entryY=0.25;entryDx=0;entryDy=0;" edge="1" parent="1" source="FBXP_28kxmkB9ySifm7v-11" target="FBXP_28kxmkB9ySifm7v-9">
          <mxGeometry relative="1" as="geometry" />
        </mxCell>
        <mxCell id="FBXP_28kxmkB9ySifm7v-11" value="" style="rounded=0;whiteSpace=wrap;html=1;" vertex="1" parent="1">
          <mxGeometry x="748" y="155" width="250" height="110" as="geometry" />
        </mxCell>
        <mxCell id="FBXP_28kxmkB9ySifm7v-12" value="&lt;h2 id=&quot;ghost-core&quot; style=&quot;font-size: 15px;&quot;&gt;Ghost Core&lt;/h2&gt;" style="text;html=1;strokeColor=#82b366;fillColor=#d5e8d4;align=center;verticalAlign=middle;whiteSpace=wrap;rounded=0;fontSize=15;textDirection=ltr;fontStyle=1" vertex="1" parent="1">
          <mxGeometry x="803" y="195" width="150" height="20" as="geometry" />
        </mxCell>
        <mxCell id="FBXP_28kxmkB9ySifm7v-13" value="&lt;h4 id=&quot;data--storage&quot;&gt;Data &amp;amp; Storage&lt;/h4&gt;" style="text;html=1;strokeColor=#82b366;fillColor=#d5e8d4;align=center;verticalAlign=middle;whiteSpace=wrap;rounded=0;fontSize=15;textDirection=ltr;fontStyle=1" vertex="1" parent="1">
          <mxGeometry x="798" y="420" width="150" height="20" as="geometry" />
        </mxCell>
        <mxCell id="FBXP_28kxmkB9ySifm7v-21" value="Request" style="text;html=1;align=center;verticalAlign=middle;resizable=0;points=[];autosize=1;strokeColor=none;" vertex="1" parent="1">
          <mxGeometry x="608" y="215" width="60" height="20" as="geometry" />
        </mxCell>
        <mxCell id="FBXP_28kxmkB9ySifm7v-22" value="&lt;div&gt;Response&lt;/div&gt;&lt;div&gt;(JSON)&lt;br&gt;&lt;/div&gt;" style="text;html=1;align=center;verticalAlign=middle;resizable=0;points=[];autosize=1;strokeColor=none;" vertex="1" parent="1">
          <mxGeometry x="613" y="150" width="70" height="30" as="geometry" />
        </mxCell>
        <mxCell id="FBXP_28kxmkB9ySifm7v-23" value="Query Rq" style="text;html=1;align=center;verticalAlign=middle;resizable=0;points=[];autosize=1;strokeColor=none;" vertex="1" parent="1">
          <mxGeometry x="803" y="305" width="70" height="20" as="geometry" />
        </mxCell>
        <mxCell id="FBXP_28kxmkB9ySifm7v-24" value="&lt;div&gt;Query Rs&lt;/div&gt;&lt;div&gt;&lt;br&gt;&lt;/div&gt;" style="text;html=1;align=center;verticalAlign=middle;resizable=0;points=[];autosize=1;strokeColor=none;" vertex="1" parent="1">
          <mxGeometry x="933" y="310" width="70" height="30" as="geometry" />
        </mxCell>
        <mxCell id="FBXP_28kxmkB9ySifm7v-25" value="&lt;font style=&quot;font-size: 14px&quot;&gt;With a default or &lt;/font&gt;&lt;font style=&quot;font-size: 14px&quot;&gt;custom front-end&lt;/font&gt;" style="text;html=1;align=center;verticalAlign=middle;resizable=0;points=[];autosize=1;strokeColor=none;" vertex="1" parent="1">
          <mxGeometry x="268" y="265" width="230" height="20" as="geometry" />
        </mxCell>
        <mxCell id="FBXP_28kxmkB9ySifm7v-26" value="Decoupled architecture" style="text;whiteSpace=wrap;html=1;" vertex="1" parent="1">
          <mxGeometry x="563" y="285" width="150" height="30" as="geometry" />
        </mxCell>
        <mxCell id="FBXP_28kxmkB9ySifm7v-27" value="Static site" style="text;html=1;align=center;verticalAlign=middle;resizable=0;points=[];autosize=1;strokeColor=none;" vertex="1" parent="1">
          <mxGeometry x="358" y="195" width="70" height="20" as="geometry" />
        </mxCell>
        <mxCell id="FBXP_28kxmkB9ySifm7v-28" value="Framework" style="text;html=1;align=center;verticalAlign=middle;resizable=0;points=[];autosize=1;strokeColor=none;" vertex="1" parent="1">
          <mxGeometry x="353" y="215" width="80" height="20" as="geometry" />
        </mxCell>
        <mxCell id="FBXP_28kxmkB9ySifm7v-31" value="" style="html=1;aspect=fixed;strokeColor=none;shadow=0;align=center;verticalAlign=top;fillColor=#3B8DF1;shape=mxgraph.gcp2.phone_android" vertex="1" parent="1">
          <mxGeometry x="280" y="65" width="44.8" height="80" as="geometry" />
        </mxCell>
        <mxCell id="FBXP_28kxmkB9ySifm7v-32" value="" style="shape=mxgraph.signs.tech.computer;html=1;pointerEvents=1;strokeColor=none;verticalLabelPosition=bottom;verticalAlign=top;align=center;fillColor=#00CC00;" vertex="1" parent="1">
          <mxGeometry x="361" y="67" width="72" height="78" as="geometry" />
        </mxCell>
      </root>
    </mxGraphModel>
  </diagram>
</mxfile>
